# 3ds Max Wavefront OBJ Exporter v0.97b - (c)2007 guruware
# File Created: 01.12.2014 19:32:23

mtllib node_end.mtl

#
# object Node_end
#

v  -0.499627 -0.176599 -0.129695
v  -0.499627 0.172297 -0.129695
v  0.500373 0.172297 -0.129695
v  0.500373 -0.176599 -0.129695
v  -0.499627 -0.176599 0.128308
v  0.500373 -0.176599 0.128308
v  0.500373 0.172297 0.128308
v  -0.499627 0.172297 0.128308
# 8 vertices

vn -0.000000 0.000000 -1.000000
vn 0.000000 0.000000 1.000000
vn -0.000000 -1.000000 -0.000000
vn 0.000000 -1.000000 -0.000000
vn 1.000000 0.000000 -0.000000
vn 0.000000 1.000000 0.000000
vn -1.000000 0.000000 -0.000000
vn -1.000000 -0.000000 -0.000000
# 8 vertex normals

vt 0.998462 0.008252 -0.013467
vt 0.998462 0.991749 -0.013467
vt 0.001538 0.991748 -0.013467
vt 0.001538 0.008251 -0.013467
vt 0.001538 0.008252 1.000919
vt 0.998462 0.008251 1.000919
vt 0.998462 0.991748 1.000919
vt 0.001538 0.991748 1.000919
vt 0.001538 -0.013467 0.008252
vt 0.998462 -0.013467 0.008251
vt 0.998462 1.000919 0.008251
vt 0.001538 1.000919 0.008252
vt 0.008251 -0.013467 0.998462
vt 0.991748 -0.013467 0.998462
vt 0.991748 1.000919 0.998462
vt 0.008251 1.000919 0.998462
vt 0.001538 -0.013467 0.991748
vt 0.998462 -0.013467 0.991749
vt 0.998462 1.000919 0.991748
vt 0.001538 1.000919 0.991748
vt 0.008251 -0.013467 0.001538
vt 0.991748 -0.013467 0.001538
vt 0.991748 1.000919 0.001538
vt 0.008252 1.000919 0.001538
# 24 texture coords

g Node_end
usemtl Material__end
f 1/1/1 2/2/1 3/3/1 
f 3/3/1 4/4/1 1/1/1 
f 5/5/2 6/6/2 7/7/2 
f 7/7/2 8/8/2 5/5/2 
f 1/9/3 4/10/3 6/11/3 
f 6/11/3 5/12/4 1/9/3 
f 4/13/5 3/14/5 7/15/5 
f 7/15/5 6/16/5 4/13/5 
f 3/17/6 2/18/6 8/19/6 
f 8/19/6 7/20/6 3/17/6 
f 2/21/7 1/22/7 5/23/7 
f 5/23/7 8/24/8 2/21/7 
# 12 faces

