# 3ds Max Wavefront OBJ Exporter v0.97b - (c)2007 guruware
# File Created: 18.11.2014 00:30:21

mtllib text_model.mtl

#
# object Box001
#

v  -1.000000 -0.176275 -0.002037
v  1.000000 -0.176275 -0.002037
v  1.000000 0.176275 -0.002037
v  -1.000000 0.176275 -0.002037
# 4 vertices

vn 0.000000 -0.000001 1.000000
# 1 vertex normals

vt 0.000000 0.000000 0.000000
vt 1.000000 0.000000 0.000000
vt 1.000000 1.000000 0.000000
vt 0.000000 1.000000 0.000000
# 4 texture coords

g Box001
usemtl Material__3
f 1/1/1 2/2/1 3/3/1 
f 3/3/1 4/4/1 1/1/1 
# 2 faces

